<?xml version="1.0" ?>
<!DOCTYPE svg  PUBLIC '-//W3C//DTD SVG 1.1//EN'  'http://www.w3.org/Graphics/SVG/1.1/DTD/svg11.dtd' [
	<!ENTITY stroke_color "#000000">
	<!ENTITY fill_color "#AAAAAA">
]><svg enable-background="new 0 0 55 55" height="55px" version="1.1" viewBox="0 0 55 55" width="55px" x="0px" xml:space="preserve" xmlns="http://www.w3.org/2000/svg" xmlns:xlink="http://www.w3.org/1999/xlink" y="0px">
<g style="display:block">
	<path d="m 30.375116,39.878197 c -0.70189,-1.731656 -4.409134,-1.275269 -6.057408,-0.0832 -3.296549,2.387712 -1.841933,6.484222 1.932616,5.154282 2.148251,-0.758268 4.825309,-3.337054 4.124792,-5.071082 z" id="path5" style="display:inline" />
	<line display="inline" x1="28.941" x2="28.941" y1="39.806" y2="18.613293" id="line7" style="fill:none;stroke:&stroke_color;;stroke-width:2.89074731;display:inline" />
	
</g><path d="m 30.175555,22.293519 c 0.116292,0.147138 0.196195,0.364174 0.275869,0.565048 0.132532,0.338202 0.296903,0.630905 0.467035,0.915973 0.248905,0.396581 0.45362,0.860223 0.656771,1.321572 0.148499,0.275196 0.265462,0.608999 0.451945,0.818809 0.110335,0.103401 0.234456,0.119286 0.358036,0.125511 0.122875,0.0025 0.245734,-0.0016 0.36859,-0.0038 0,0 -0.167979,0.204435 -0.167979,0.204435 l 0,0 c -0.123105,0.0018 -0.246225,0.0054 -0.369333,0.0027 -0.126282,-0.0092 -0.252115,-0.03204 -0.362849,-0.143827 -0.184324,-0.219463 -0.299696,-0.555934 -0.446624,-0.837439 -0.200647,-0.46356 -0.40863,-0.920301 -0.658841,-1.313613 -0.17055,-0.287321 -0.339167,-0.577813 -0.472244,-0.91831 -0.07785,-0.19207 -0.156714,-0.411233 -0.275618,-0.53829 0,0 0.175232,-0.198776 0.175232,-0.198776 z" id="path2994" style="fill:&stroke_color;;fill-opacity:1;fill-rule:evenodd;stroke:&stroke_color;;stroke-width:4.08400822;stroke-linecap:butt;stroke-miterlimit:4;stroke-opacity:1;stroke-dasharray:none;stroke-dashoffset:0" /></svg>