<?xml version="1.0" encoding="UTF-8" standalone="no"?>
<!-- Created with Inkscape (http://www.inkscape.org/) -->
<!DOCTYPE svg PUBLIC "-//W3C//DTD SVG 1.1//EN" "http://www.w3.org/Graphics/SVG/1.1/DTD/svg11.dtd" [
    <!ENTITY ns_svg "http://www.w3.org/2000/svg">
    <!ENTITY ns_xlink " http://www.w3.org/1999/xlink">
    <!ENTITY stroke_color "#000000">
    <!ENTITY fill_color "#AAAAAA">
]>
<svg xmlns:rdf="http://www.w3.org/1999/02/22-rdf-syntax-ns#" xmlns="http://www.w3.org/2000/svg" height="55" width="55" version="1.1" xmlns:cc="http://creativecommons.org/ns#" xmlns:dc="http://purl.org/dc/elements/1.1/" >
<g transform="scale(0.07) translate(-3.576666,-80.89799) ">
 <path d="m455,351a101,61.4,0,1,1,-202,0,101,61.4,0,1,1,202,0z" stroke-opacity="0.97965237" fill-opacity="0.99283902" transform="matrix(0.91706008,-0.39874906,0.39874906,0.91706008,-110.55003,170.37751)" stroke="&stroke_color;" stroke-miterlimit="4" stroke-dasharray="none" stroke-width="1.20000005" fill="&fill_color;"/>
 <rect stroke-dasharray="none" stroke-opacity="0.98" fill-opacity="0.993" height="543" width="20" stroke="&stroke_color;" stroke-miterlimit="4" y="367" x="263" stroke-width="1.2" fill="&fill_color;"/>
 <path d="m303,127c20.6,9.71,41.7,18.1,62.7,26.7,22.3,8.81,44.9,17.1,68.4,22.4,13.8,2.82,27.8,3.61,41.8,3.75,29.7,0.727-10.3,27.1-30.8,27-10.2-0.219-20.4,1.13-30.5,2.08-11.2,1.43-22.3,3.35-33.4,5.63-3.62,0.979-7.91,2.03-11.4,3.41-14.2,5.59-45.1,24.5,15.7-10.2-23.5,15.2-47.9,29.2-73.1,41.5-16.5,6.86-62.2,33.4,5.29-4.82-15.4,12.4-33.5,20.9-50.8,30.3-0.899,0.384-3.54,1.64-2.7,1.15,11.2-6.54,44.9-26.1,33.8-19.3-12.6,7.69-25.6,14.7-38.4,22.1-11.4,6.57,22.7-13.2,34.1-19.6,0.264-0.15-1.47,1.06-3.63,2.58-2.15,1.87-1.08,0.972-3.2,2.69,0,0-39.1,16.2-39.1,16.2,1.87-2.23,0.82-1.25,3.13-2.95,1.76-1.87,1.3-1.64,3.53-2.97,12.7-7.52,25.9-14.1,38.1-22.5,10.7-7.4-45.4,25.7-33.8,19.6,102-54,21.3-13.4,41.2-23.4,14.2-7.14,3.07-1.6-31.1,18.2-0.804,0.466,1.6-0.941,2.42-1.38,2.75-1.46,5.42-2.88,7.6-5.19,21.7-12.9,42.6-26.3,65.7-36.3,2.34-1.18,4.69-2.33,7.01-3.54,2.42-1.25,4.8-2.56,7.2-3.84,28.9-15.4-41.2,25.7-16.5,9.63,1.56-1.02,3.1-2.08,4.65-3.12,21.8-12.7,42.4-27.9,67.4-33.2,11.3-2.31,22.6-4.14,34-5.45,10.3-0.877,20.6-1.84,30.9-2.28,17.1-2.62-2.37-0.0761-31.1,21.1-0.803,0.591,1.5,1.42,1.84,2.36,0.128,0.358-0.729-0.222-1.1-0.298-2.82-0.574-3.14-0.494-6.39-0.782-13.9-0.622-27.8-1.85-41.4-5.1-23.2-5.85-45.5-14.6-67.7-23.6-21.7-8.72-43.4-17.4-65.4-25.3,0,0,35.3-23.3,35.3-23.3z" stroke-opacity="0.97965232" fill-opacity="0.99283902" stroke="&stroke_color;" stroke-miterlimit="4" stroke-dasharray="none" stroke-width="1.20000005" fill="&fill_color;"/>
 </g>
</svg>
