<?xml version="1.0" encoding="UTF-8" standalone="no"?>
<!DOCTYPE svg PUBLIC "-//W3C//DTD SVG 1.1//EN" "http://www.w3.org/Graphics/SVG/1.1/DTD/svg11.dtd" [
    <!ENTITY ns_svg "http://www.w3.org/2000/svg">
    <!ENTITY ns_xlink " http://www.w3.org/1999/xlink">
    <!ENTITY stroke_color "#FFFFFF">
    <!ENTITY fill_color "#FFFFFF">
]>
<svg xmlns:dc="http://purl.org/dc/elements/1.1/" 
	xmlns:cc="http://creativecommons.org/ns#" 
	xmlns:rdf="http://www.w3.org/1999/02/22-rdf-syntax-ns#" 
	xmlns:svg="http://www.w3.org/2000/svg" 
	xmlns="http://www.w3.org/2000/svg" 
	xmlns:xlink="http://www.w3.org/1999/xlink" 
	version="1.1" 
	width="55" 
	height="55" 
	viewBox="0 0 1052.3622 744.09448"
	id="svg3645">
  <defs id="defs3647">
    <radialGradient cx="217.34978" cy="292.61118" r="75.814995" fx="217.34978" fy="292.61118" id="radialGradient4596" xlink:href="#linearGradient3083" gradientUnits="userSpaceOnUse" gradientTransform="matrix(1,0,0,1.034231,0,-10.016371)" />
    <linearGradient id="linearGradient3083">
      <stop id="stop3085" style="stop-color:#ffffff;stop-opacity:1" offset="0" />
      <stop id="stop3087" style="stop-color:#c5c5c5;stop-opacity:1" offset="1" />
    </linearGradient>
    <radialGradient cx="217.34978" cy="292.61118" r="75.814995" fx="217.34978" fy="292.61118" id="radialGradient4598" xlink:href="#linearGradient3083" gradientUnits="userSpaceOnUse" gradientTransform="matrix(1,0,0,1.034231,0,-10.016371)" />
    <linearGradient id="linearGradient3626">
      <stop id="stop3628" style="stop-color:#ffffff;stop-opacity:1" offset="0" />
      <stop id="stop3630" style="stop-color:#c5c5c5;stop-opacity:1" offset="1" />
    </linearGradient>
  </defs>
  <metadata id="metadata3650">
    <rdf:RDF>
      <cc:Work rdf:about="">
        <dc:format>image/svg+xml</dc:format>
        <dc:type rdf:resource="http://purl.org/dc/dcmitype/StillImage" />
        <dc:title></dc:title>
      </cc:Work>
    </rdf:RDF>
  </metadata>
  <g transform="translate(0,-308.26767)" id="layer1">
    <g transform="matrix(3.1332501,0,0,3.1332501,98.18098,270.42833)" id="g3597">
      <path d="m 130.41036,32.532296 c 0,0 6.32888,22.630465 7.6474,31.590755 1.31853,8.96029 7.38371,27.68499 -5.66962,28.37424 -13.05333,0.68925 -7.12,-19.413955 -7.25185,-29.063495 -0.13185,-9.64954 5.27407,-30.9015 5.27407,-30.9015 z" id="path3129" style="fill:&fill_color;;stroke:none" />
      <path d="m 71.025155,39.183361 c 0,0 24.559767,7.02697 33.658515,19.413955 9.09875,12.386985 19.4893,33.737885 4.70989,36.5304 -14.779398,2.792515 -8.27103,-20.44783 -15.048678,-32.394885 -5.45165,-9.609685 -23.319727,-23.54947 -23.319727,-23.54947 z" id="path3127" style="fill:&fill_color;;stroke:none" />
      <path d="m 19.31557,66.979316 c 0,0 29.9825,-5.28427 46.17994,1.83801 16.19744,7.12228 38.13866,29.9825 24.468472,38.023784 C 76.293805,114.88239 72.273165,87.427151 58.602985,78.926366 44.932805,70.425581 19.31557,66.979316 19.31557,66.979316 z" id="path3125" style="fill:&fill_color;;stroke:none" />
      <path d="m 7.253645,115.8616 c 0,0 22.17097,-15.27843 41.814675,-11.83217 19.643705,3.44627 36.9899,16.42719 28.489115,26.53623 -8.500785,10.10904 -16.79235,-10.82087 -34.46264,-16.88669 -17.67029,-6.06582 -23.8941,1.45509 -35.84115,2.18263 z" id="path3123" style="fill:&fill_color;;stroke:none" />
      <path d="m 290.66477,292.61118 a 73.314995,75.910217 0 1 1 -146.62999,0 73.314995,75.910217 0 1 1 146.62999,0 z" transform="matrix(0.26466205,0,0,0.28900027,101.20378,58.700366)" id="path3759" style="fill:url(#radialGradient4596);stroke:&stroke_color;;stroke-width:5;stroke-miterlimit:4;stroke-opacity:1;stroke-dasharray:none" />
      <path d="m 171.2846,498.28247 a 42.821148,42.821148 0 1 1 -85.642293,0 42.821148,42.821148 0 1 1 85.642293,0 z" transform="matrix(0.26466205,0,0,0.28900027,124.72861,6.9490115)" id="path3761" style="fill:&fill_color;;stroke:none" />
      <path d="m 290.66477,292.61118 a 73.314995,75.910217 0 1 1 -146.62999,0 73.314995,75.910217 0 1 1 146.62999,0 z" transform="matrix(0.26466205,0,0,0.28900027,48.650555,58.700366)" id="path3797" style="fill:url(#radialGradient4598);stroke:&stroke_color;;stroke-width:5;stroke-miterlimit:4;stroke-opacity:1;stroke-dasharray:none" />
      <path d="m 171.2846,498.28247 a 42.821148,42.821148 0 1 1 -85.642293,0 42.821148,42.821148 0 1 1 85.642293,0 z" transform="matrix(0.26466205,0,0,0.28900027,72.175395,6.9490115)" id="path3799" style="fill:&fill_color;;stroke:none" />
      <path d="m 89.954652,180.89578 c 0,0 23.356988,12.97611 42.172348,12.97611 18.81535,0 42.82115,-12.3273 42.82115,-12.3273" id="path3803" style="fill:none;stroke:&stroke_color;;stroke-width:5;stroke-linecap:round;stroke-linejoin:miter;stroke-miterlimit:4;stroke-opacity:1;stroke-dasharray:none" />
      <path d="m 195.61889,42.850501 c 0,0 -24.55976,7.02697 -33.65851,19.413955 -9.09875,12.386985 -19.4893,33.737885 -4.7099,36.5304 14.77941,2.792514 8.27104,-20.44783 15.04869,-32.394885 5.45165,-9.609685 23.31972,-23.54947 23.31972,-23.54947 z" id="path3127-3" style="fill:&fill_color;;stroke:none" />
      <path d="m 248.23967,68.824066 c 0,0 -29.9825,-5.28427 -46.17994,1.83801 -16.19744,7.12228 -38.13866,29.982504 -24.46847,38.023784 13.67018,8.04128 17.69082,-19.413959 31.361,-27.914744 13.67018,-8.500785 39.28741,-11.94705 39.28741,-11.94705 z" id="path3125-4" style="fill:&fill_color;;stroke:none" />
      <path d="m 262.57958,115.42836 c 0,0 -22.17097,-15.27843 -41.81467,-11.83217 -19.64371,3.44627 -36.9899,16.42719 -28.48912,26.53623 8.50079,10.10904 16.79235,-10.82087 34.46264,-16.88669 17.67029,-6.06582 23.8941,1.45509 35.84115,2.18263 z" id="path3123-0" style="fill:&fill_color;;stroke:none" />
    </g>
  </g>
</svg>
